# xmcd
#
# Track frame offsets: 
#        150
#        16539
#        46186
#        81703
#        105780
#        119489
#        154146
#        166693
#        220113
#        234999
#
# Disc length: 3432 seconds
#
# Revision: 0
# Processed by: cddbd v1.5.2PL0 Copyright (c) Steve Scherf et al.
# Submitted via: ExactAudioCopy v1.3
#
DISCID=6c0d660a
DTITLE=Muddy Waters - Hawkeye Blues (Live 1981)
DYEAR=2019
DGENRE=Blues
TTITLE0=Hoochie Coochie Man (Live 1981)
TTITLE1=My Home is In the Delta (Live 1981)
TTITLE2=Baby You Don't Have To Go (Live 1981)
TTITLE3=King Bee (Live 1981)
TTITLE4=Baby Please Don't Go (Live 1981)
TTITLE5=Long Distance Call (Live 1981)
TTITLE6=Trouble No More (Live 1981)
TTITLE7=Going Down Slow (Live 1981)
TTITLE8=Got My Mojo Workin' (Live 1981)
TTITLE9=Mannish Boy (Live 1981)
EXTD=
EXTT0=
EXTT1=
EXTT2=
EXTT3=
EXTT4=
EXTT5=
EXTT6=
EXTT7=
EXTT8=
EXTT9=
PLAYORDER=
